<?xml version="1.0" encoding="UTF-8" standalone="no"?>
<svg
   xmlns:dc="http://purl.org/dc/elements/1.1/"
   xmlns:cc="http://web.resource.org/cc/"
   xmlns:rdf="http://www.w3.org/1999/02/22-rdf-syntax-ns#"
   xmlns:svg="http://www.w3.org/2000/svg"
   xmlns="http://www.w3.org/2000/svg"
   xmlns:sodipodi="http://sodipodi.sourceforge.net/DTD/sodipodi-0.dtd"
   xmlns:inkscape="http://www.inkscape.org/namespaces/inkscape"
   version="1.0"
   width="800"
   height="533"
   id="svg2"
   sodipodi:version="0.32"
   inkscape:version="0.45.1"
   sodipodi:docname="Escudo_Gondor.svg"
   inkscape:output_extension="org.inkscape.output.svg.inkscape"
   sodipodi:docbase="C:\Documents and Settings\Rondador Nocturno\Escritorio">
  <metadata
     id="metadata15">
    <rdf:RDF>
      <cc:Work
         rdf:about="">
        <dc:format>image/svg+xml</dc:format>
        <dc:type
           rdf:resource="http://purl.org/dc/dcmitype/StillImage" />
      </cc:Work>
    </rdf:RDF>
  </metadata>
  <sodipodi:namedview
     inkscape:window-height="971"
     inkscape:window-width="1280"
     inkscape:pageshadow="2"
     inkscape:pageopacity="0.0"
     guidetolerance="10.0"
     gridtolerance="10.0"
     objecttolerance="10.0"
     borderopacity="1.0"
     bordercolor="#666666"
     pagecolor="#ffffff"
     id="base"
     inkscape:zoom="1.4296435"
     inkscape:cx="400"
     inkscape:cy="255.43082"
     inkscape:window-x="0"
     inkscape:window-y="23"
     inkscape:current-layer="svg2"
     width="800px"
     height="533px" />
  <defs
     id="defs4" />
  <rect
     style="fill:#000000;fill-opacity:1;stroke:none;stroke-opacity:1"
     id="rect2170"
     width="800.89893"
     height="532.30048"
     x="-0.44946289"
     y="0.34976196" />
  <g
     transform="translate(36.428569,-128.36218)"
     id="layer2"
     style="display:inline" />
  <g
     id="g3143"
     transform="translate(2.5635672e-6,-2.7198347)">
    <path
       style="fill:#ffffff;fill-opacity:1"
       id="path3253"
       d="M 397.99798,105.15812 C 392.03545,109.40216 382.85942,113.13092 387.01306,118.11874 C 392.17773,114.23137 396.28794,118.64642 397.99798,123.0975 C 397.99798,125.23114 397.99798,127.36515 397.99798,129.49878 C 397.05507,130.07967 395.32582,129.45064 392.62407,126.57474 C 382.86642,120.41409 365.61985,129.52339 377.76678,139.45633 C 387.52253,144.88964 376.94183,124.75666 390.33225,131.63254 C 402.66251,136.47966 395.7804,169.82724 380.53276,155.26195 C 369.55848,146.65076 348.67956,145.67682 346.23455,128.55044 C 348.43123,122.29204 367.35493,121.13278 356.1921,128.62947 C 368.4719,137.0956 363.54229,108.52933 350.34401,117.72359 C 333.00032,117.26194 343.53785,140.85032 333.59005,149.80901 C 331.35853,165.4492 346.85989,157.54765 352.24069,150.44124 C 346.57646,153.50844 330.70743,150.51173 344.41691,146.88497 C 357.74488,147.97271 368.73966,155.51482 378.399,163.24379 C 377.78253,170.40625 401.67753,178.53125 384.16805,176.83662 C 375.44911,183.357 396.0956,186.85626 391.20156,197.38394 C 395.7451,209.01507 383.42306,218.40186 378.399,204.10133 C 380.35501,194.63989 357.60234,185.9325 363.93685,197.30492 C 382.85432,204.92996 350.35451,201.25048 348.68443,191.53586 C 341.53678,181.79533 350.11057,167.08123 353.74223,180.47192 C 364.77697,166.24484 341.65641,164.90816 341.33481,180.86707 C 340.96157,199.38914 358.8565,200.85684 368.59952,209.39621 C 376.01513,215.89571 400.71657,230.08713 382.27138,237.13509 C 373.58193,237.38249 358.71998,221.1511 362.6724,216.6668 C 376.19633,218.16613 360.1211,210.37503 356.03404,209.31719 C 345.56113,202.74107 360.71456,219.14896 354.45348,223.30516 C 368.59279,223.13875 352.30356,243.06835 367.17701,237.60925 C 375.80981,242.46592 384.37431,252.89464 388.90974,261.15964 C 383.0476,276.5428 364.85399,253.23164 358.40489,245.82818 C 351.94109,235.58143 346.79647,225.01707 341.65092,215.48138 C 332.31855,198.18671 330.79891,196.39 322.44709,177.15274 C 316.10534,164.02874 301.07556,150.4461 290.15093,160.73371 C 287.58648,163.14862 290.2055,176.57431 299.12983,176.25159 C 305.3084,176.02816 291.26808,171.93823 292.28844,165.83666 C 292.97238,161.74689 298.85427,157.23732 308.01128,166.8678 C 313.1473,172.26938 324.61858,186.16342 309.55045,183.90777 C 300.22099,184.59586 297.37535,185.35687 279.7719,190.90364 C 262.16847,196.4504 260.15239,225.0601 279.37676,228.7581 C 293.03549,230.42476 310.76753,218.74238 306.48341,203.39007 C 303.08363,191.24495 277.0719,203.84743 298.18545,202.12562 C 308.53792,212.37277 289.74194,233.27192 277.63814,221.96169 C 263.28086,215.9797 271.68061,199.58539 282.69594,195.32921 C 294.33478,191.86895 313.45692,186.49239 319.91819,200.46604 C 320.17481,209.87746 333.21084,230.28615 315.09747,224.8067 C 300.49479,225.65704 286.88422,231.7498 276.29467,237.05606 C 266.67304,242.68418 262.1251,221.5011 258.19722,234.9223 C 259.30148,239.89483 270.5269,250.36665 271.15784,242.98317 C 289.54629,244.50108 256.88915,260.41696 252.66525,247.0136 C 249.05717,235.40021 248.21252,265.49396 259.77779,259.89519 C 266.18103,260.31176 272.25872,251.45163 268.78699,263.21437 C 265.91987,268.13613 244.78906,263.38406 256.69569,271.11717 C 260.37376,291.39601 275.46733,254.12002 278.11231,274.2783 C 281.9594,293.65415 313.06045,289.61419 313.83302,271.1962 C 321.32175,265.80884 306.6835,233.23153 307.74786,257.1292 C 319.27774,272.68305 291.99755,292.01661 282.61692,274.91052 C 274.61201,261.88543 278.0505,241.08903 294.3921,237.13509 C 304.28793,228.86132 320.51125,231.27344 330.58699,237.13509 C 338.61127,238.26844 343.98425,248.70493 349.47471,251.67627 C 343.41653,247.99303 326.62824,246.82886 339.83328,254.52128 C 356.21827,254.45472 360.01534,272.90642 370.65424,279.81027 C 379.87237,294.87355 351.69527,280.1757 351.68749,270.95912 C 335.28307,267.50701 343.14772,279.59749 352.87291,282.02306 C 341.84764,293.49506 332.49243,269.24784 337.62049,261.87089 C 330.19184,246.92593 316.28313,260.92335 323.55348,269.85272 C 341.07864,268.00732 333.51066,293.08178 329.00642,295.06269 C 334.38289,302.64634 354.59958,295.33322 337.54146,294.58853 C 331.08045,284.63154 364.12492,286.10153 351.84555,297.9077 C 342.07535,319.30079 384.79459,314.36113 370.2591,300.67369 C 368.96615,315.22579 346.67326,304.46603 359.51128,294.82561 C 377.26344,287.55283 387.95728,307.96029 388.43557,322.01128 C 388.95135,355.69877 389.79448,389.45639 387.48724,423.08825 C 381.02394,435.4563 359.80933,435.124 359.74837,452.56575 C 354.81943,458.65511 353.31048,475.16749 340.93967,468.21332 C 343.36332,464.03348 357.22104,461.89068 344.89108,462.2862 C 325.32008,472.72477 361.74442,479.56409 361.32893,462.76038 C 360.10664,455.07001 379.36139,443.16241 380.84887,450.43199 C 368.30579,455.35628 371.89996,473.64307 361.17087,477.38058 C 358.03751,473.76924 368.51528,469.69234 358.95808,473.5082 C 347.94573,484.76458 379.05932,485.49228 374.52662,470.9793 C 375.46929,452.27793 401.53171,455.74951 392.54504,474.21946 C 388.94787,484.74918 381.84981,475.23954 388.19849,472.32278 C 374.63982,471.93117 386.20941,488.33233 393.5724,490.26216 C 396.28731,497.55096 389.84963,499.08002 396.33839,506.22584 C 397.31967,511.41434 398.78051,512.71318 400.05271,511.9949 C 401.31204,512.64224 402.72118,511.33787 403.688,506.22584 C 410.17675,499.08002 403.73909,497.55096 406.45399,490.26216 C 413.81698,488.33233 425.38659,471.93117 411.8279,472.32278 C 418.1766,475.23954 410.99947,484.74918 407.40232,474.21946 C 398.41565,455.74951 424.55709,452.27793 425.49977,470.9793 C 420.96707,485.49228 452.08067,484.76458 441.0683,473.5082 C 431.51111,469.69234 441.98886,473.76924 438.85551,477.38058 C 428.12642,473.64307 431.72063,455.35628 419.17752,450.43199 C 420.66499,443.16241 439.91972,455.07001 438.69746,462.76038 C 438.28196,479.56409 474.70634,472.72477 455.13531,462.2862 C 442.80532,461.89068 456.66306,464.03348 459.08671,468.21332 C 446.71591,475.16749 445.20695,458.65511 440.27802,452.56575 C 440.21705,435.124 419.00242,435.4563 412.53915,423.08825 C 410.23191,389.45639 411.07504,355.69877 411.59082,322.01128 C 412.06913,307.96029 422.76293,287.55283 440.51511,294.82561 C 453.35311,304.46603 431.06022,315.22579 429.76728,300.67369 C 415.23182,314.36113 457.95105,319.30079 448.18084,297.9077 C 435.90145,286.10153 468.94594,284.63154 462.48493,294.58853 C 445.42681,295.33322 465.64349,302.64634 471.01997,295.06269 C 466.51571,293.08178 458.94775,268.00732 476.4729,269.85272 C 483.7433,260.92335 469.83459,246.92593 462.4059,261.87089 C 467.53394,269.24784 458.09973,293.49506 447.07444,282.02306 C 456.79963,279.59749 464.7433,267.50701 448.33889,270.95912 C 448.33112,280.1757 420.15403,294.87355 429.37214,279.81027 C 440.01104,272.90642 443.80814,254.45472 460.19311,254.52128 C 473.39819,246.82886 456.60985,247.99303 450.55168,251.67627 C 456.04215,248.70493 461.33612,238.26844 469.36037,237.13509 C 479.43611,231.27344 495.65946,228.86132 505.55525,237.13509 C 521.89688,241.08903 525.41439,261.88543 517.40947,274.91052 C 508.02887,292.01661 480.74864,272.68305 492.27853,257.1292 C 493.34288,233.23153 478.70466,265.80884 486.19337,271.1962 C 486.96596,289.61419 518.06701,293.65415 521.91408,274.2783 C 524.55908,254.12002 539.65261,291.39601 543.3307,271.11717 C 555.23733,263.38406 534.10655,268.13613 531.23939,263.21437 C 527.76766,251.45163 533.76635,260.31176 540.16957,259.89519 C 551.73484,265.49396 550.96926,235.40021 547.36113,247.0136 C 543.13728,260.41696 510.40108,244.50108 528.78952,242.98317 C 529.42049,250.36665 540.72493,239.89483 541.82917,234.9223 C 537.9013,221.5011 533.35337,242.68418 523.73172,237.05606 C 513.14218,231.7498 499.53164,225.65704 484.92892,224.8067 C 466.81556,230.28615 479.85161,209.87746 480.1082,200.46604 C 486.56948,186.49239 505.69159,191.86895 517.33044,195.32921 C 528.34577,199.58539 536.66652,215.9797 522.30921,221.96169 C 510.20544,233.27192 491.40946,212.37277 501.7619,202.12562 C 522.87548,203.84743 496.86375,191.24495 493.46395,203.39007 C 489.17986,218.74238 506.99088,230.42476 520.64963,228.7581 C 539.87399,225.0601 538.01771,197.68382 520.25449,190.90364 C 495.14691,181.32011 514.20245,187.42535 490.77699,181.49929 C 475.7089,183.75494 487.93281,173.62411 493.06881,168.22257 C 502.2258,158.59206 506.06123,161.22441 509.99587,165.9872 C 514.06467,173.30345 492.98197,167.29032 508.83935,172.81479 C 513.91501,174.58306 516.1775,162.2106 511.53127,159.98106 C 501.93716,151.51027 484.16917,164.95913 477.5793,177.15274 C 470.72924,195.3542 468.15744,199.53436 458.37547,215.48138 C 453.09575,224.0886 448.08529,235.58143 441.6215,245.82818 C 435.1724,253.23164 416.89981,276.5428 411.03761,261.15964 C 415.57307,252.89464 424.13757,242.46592 432.77035,237.60925 C 447.6438,243.06835 431.43362,223.13875 445.57291,223.30516 C 439.31186,219.14896 454.38626,202.74107 443.91331,209.31719 C 439.82626,210.37503 423.83008,218.16613 437.35398,216.6668 C 441.3064,221.1511 426.36545,237.38249 417.67598,237.13509 C 399.23081,230.08713 424.01125,215.89571 431.42687,209.39621 C 441.16987,200.85684 459.06483,199.38914 458.69158,180.86707 C 458.36997,164.90816 435.24943,166.24484 446.28416,180.47192 C 449.9158,167.08123 458.48958,181.79533 451.34196,191.53586 C 449.67189,201.25048 417.1721,204.92996 436.08953,197.30492 C 442.42406,185.9325 419.67138,194.63989 421.62739,204.10133 C 416.60333,218.40186 404.28128,209.01507 408.82483,197.38394 C 403.9308,186.85626 424.57729,183.357 415.85833,176.83662 C 398.34886,178.53125 422.16482,170.40625 421.54836,163.24379 C 431.20768,155.51482 442.28152,147.97271 455.60948,146.88497 C 469.31894,150.51173 453.37094,153.50844 447.70666,150.44124 C 453.08745,157.54765 468.66788,165.4492 466.43633,149.80901 C 456.48858,140.85032 467.02607,117.26194 449.68237,117.72359 C 436.48409,108.52933 431.55453,137.0956 443.83429,128.62947 C 432.67144,121.13278 451.59517,122.29204 453.79183,128.55044 C 451.34681,145.67682 430.46792,146.65076 419.49363,155.26195 C 404.24601,169.82724 397.36388,136.47966 409.69414,131.63254 C 423.08458,124.75666 412.42486,144.88964 422.18058,139.45633 C 434.3275,129.52339 417.15997,120.41409 407.40232,126.57474 C 404.61446,129.54232 402.87016,130.09996 401.94938,129.41975 C 401.94938,127.36515 401.94938,125.31016 401.94938,123.25556 C 403.62164,118.75302 407.78836,114.18598 413.01332,118.11874 C 417.18891,113.10459 407.90876,109.35102 401.94938,105.07909 C 400.95003,102.88436 400.24707,98.274283 397.99798,105.15812 z M 328.24248,204.3309 C 337.75678,206.33259 331.48301,228.2658 328.32152,211.60148 C 327.86419,209.49822 325.90057,205.89098 328.24248,204.3309 z M 471.10276,205.68565 C 473.44472,207.24573 471.51026,210.84283 471.10276,212.95624 C 467.89144,229.61041 461.58845,207.68735 471.10276,205.68565 z " />
    <g
       transform="matrix(2.5289,0,0,2.5289,146.14604,9.3885738)"
       style="fill:#ffffff;fill-opacity:1"
       id="g3151">
      <path
         sodipodi:type="star"
         style="fill:#ffffff;fill-opacity:1;stroke:none;stroke-opacity:1"
         id="path2167"
         sodipodi:sides="5"
         sodipodi:cx="-131.64894"
         sodipodi:cy="88.936172"
         sodipodi:r1="17.008389"
         sodipodi:r2="6.423521"
         sodipodi:arg1="0.46364761"
         sodipodi:arg2="1.1024704"
         inkscape:flatsided="false"
         inkscape:rounded="0"
         inkscape:randomized="0"
         d="M -116.43618,96.542555 L -128.74941,94.668042 L -134.18204,105.75487 L -136.20427,93.465037 L -148.42725,91.724319 L -137.36382,86.003295 L -139.48541,73.840641 L -130.6256,82.59469 L -119.71384,76.818475 L -125.3016,87.949798 L -116.43618,96.542555 z "
         transform="matrix(0.7184474,0.3740767,-0.3740767,0.7184474,147.09276,81.432137)" />
      <path
         sodipodi:type="star"
         style="fill:#ffffff;fill-opacity:1;stroke:none;stroke-opacity:1"
         id="path3139"
         sodipodi:sides="5"
         sodipodi:cx="-131.64894"
         sodipodi:cy="88.936172"
         sodipodi:r1="17.008389"
         sodipodi:r2="6.423521"
         sodipodi:arg1="0.46364761"
         sodipodi:arg2="1.1024704"
         inkscape:flatsided="false"
         inkscape:rounded="0"
         inkscape:randomized="0"
         d="M -116.43618,96.542555 L -128.74941,94.668042 L -134.18204,105.75487 L -136.20427,93.465037 L -148.42725,91.724319 L -137.36382,86.003295 L -139.48541,73.840641 L -130.6256,82.59469 L -119.71384,76.818475 L -125.3016,87.949798 L -116.43618,96.542555 z "
         transform="matrix(0.7184474,0.3740767,-0.3740767,0.7184474,157.89349,44.078939)" />
      <path
         sodipodi:type="star"
         style="fill:#ffffff;fill-opacity:1;stroke:none;stroke-opacity:1"
         id="path3141"
         sodipodi:sides="5"
         sodipodi:cx="-131.64894"
         sodipodi:cy="88.936172"
         sodipodi:r1="17.008389"
         sodipodi:r2="6.423521"
         sodipodi:arg1="0.46364761"
         sodipodi:arg2="1.1024704"
         inkscape:flatsided="false"
         inkscape:rounded="0"
         inkscape:randomized="0"
         d="M -116.43618,96.542555 L -128.74941,94.668042 L -134.18204,105.75487 L -136.20427,93.465037 L -148.42725,91.724319 L -137.36382,86.003295 L -139.48541,73.840641 L -130.6256,82.59469 L -119.71384,76.818475 L -125.3016,87.949798 L -116.43618,96.542555 z "
         transform="matrix(0.7184474,0.3740767,-0.3740767,0.7184474,185.47078,17.736453)" />
      <path
         sodipodi:type="star"
         style="fill:#ffffff;fill-opacity:1;stroke:none;stroke-opacity:1"
         id="path3143"
         sodipodi:sides="5"
         sodipodi:cx="-131.64894"
         sodipodi:cy="88.936172"
         sodipodi:r1="17.008389"
         sodipodi:r2="6.423521"
         sodipodi:arg1="0.46364761"
         sodipodi:arg2="1.1024704"
         inkscape:flatsided="false"
         inkscape:rounded="0"
         inkscape:randomized="0"
         d="M -116.43618,96.542555 L -128.74941,94.668042 L -134.18204,105.75487 L -136.20427,93.465037 L -148.42725,91.724319 L -137.36382,86.003295 L -139.48541,73.840641 L -130.6256,82.59469 L -119.71384,76.818475 L -125.3016,87.949798 L -116.43618,96.542555 z "
         transform="matrix(0.7184474,0.3740767,-0.3740767,0.7184474,227.86573,5.8000141)" />
      <path
         sodipodi:type="star"
         style="fill:#ffffff;fill-opacity:1;stroke:none;stroke-opacity:1"
         id="path3145"
         sodipodi:sides="5"
         sodipodi:cx="-131.64894"
         sodipodi:cy="88.936172"
         sodipodi:r1="17.008389"
         sodipodi:r2="6.423521"
         sodipodi:arg1="0.46364761"
         sodipodi:arg2="1.1024704"
         inkscape:flatsided="false"
         inkscape:rounded="0"
         inkscape:randomized="0"
         d="M -116.43618,96.542555 L -128.74941,94.668042 L -134.18204,105.75487 L -136.20427,93.465037 L -148.42725,91.724319 L -137.36382,86.003295 L -139.48541,73.840641 L -130.6256,82.59469 L -119.71384,76.818475 L -125.3016,87.949798 L -116.43618,96.542555 z "
         transform="matrix(0.7184474,0.3740767,-0.3740767,0.7184474,269.84906,17.736453)" />
      <path
         sodipodi:type="star"
         style="fill:#ffffff;fill-opacity:1;stroke:none;stroke-opacity:1"
         id="path3147"
         sodipodi:sides="5"
         sodipodi:cx="-131.64894"
         sodipodi:cy="88.936172"
         sodipodi:r1="17.008389"
         sodipodi:r2="6.423521"
         sodipodi:arg1="0.46364761"
         sodipodi:arg2="1.1024704"
         inkscape:flatsided="false"
         inkscape:rounded="0"
         inkscape:randomized="0"
         d="M -116.43618,96.542555 L -128.74941,94.668042 L -134.18204,105.75487 L -136.20427,93.465037 L -148.42725,91.724319 L -137.36382,86.003295 L -139.48541,73.840641 L -130.6256,82.59469 L -119.71384,76.818475 L -125.3016,87.949798 L -116.43618,96.542555 z "
         transform="matrix(0.7184474,0.3740767,-0.3740767,0.7184474,297.42635,44.07894)" />
      <path
         sodipodi:type="star"
         style="fill:#ffffff;fill-opacity:1;stroke:none;stroke-opacity:1"
         id="path3149"
         sodipodi:sides="5"
         sodipodi:cx="-131.64894"
         sodipodi:cy="88.936172"
         sodipodi:r1="17.008389"
         sodipodi:r2="6.423521"
         sodipodi:arg1="0.46364761"
         sodipodi:arg2="1.1024704"
         inkscape:flatsided="false"
         inkscape:rounded="0"
         inkscape:randomized="0"
         d="M -116.43618,96.542555 L -128.74941,94.668042 L -134.18204,105.75487 L -136.20427,93.465037 L -148.42725,91.724319 L -137.36382,86.003295 L -139.48541,73.840641 L -130.6256,82.59469 L -119.71384,76.818475 L -125.3016,87.949798 L -116.43618,96.542555 z "
         transform="matrix(0.7184474,0.3740767,-0.3740767,0.7184474,309.36279,81.534664)" />
    </g>
  </g>
</svg>
